{"title":"La Gran Boda (The Big Wedding)(2013)(HD)(ENG-SPA)","uid":9872663,"size":4091032867,"categoryP":"video","categoryS":"hd___movies","magnet":"?xt=urn:btih:6a26c481359057f3da4e311bacb5f784b4bb1c3e&amp;dn=La+Gran+Boda+%28The+Big+Wedding%29%282013%29%28HD%29%28ENG-SPA%29&amp;tr=udp%3A%2F%2Ftracker.openbittorrent.com%3A80&amp;tr=udp%3A%2F%2Fopen.demonii.com%3A1337&amp;tr=udp%3A%2F%2Ftracker.coppersurfer.tk%3A6969&amp;tr=udp%3A%2F%2Fexodus.desync.com%3A6969","seeders":1,"leechers":0,"uploader":null,"files":1,"time":1396432565,"description":"Complete name                            : La_Gran_Boda.mkv\nFormat                                   : Matroska\nFormat version                           : Version 4 / Version 2\nFile size                                : 3.81 GiB\nDuration                                 : 1h 29mn\nOverall bit rate mode                    : Variable\nOverall bit rate                         : 6 120 Kbps\nEncoded date                             : UTC 2014-03-31 18:27:50\nWriting application                      : Meteorite 0.11 Beta\nWriting library                          : Meteorite 0.11 Beta\n\nVideo\nID                                       : 1\nFormat                                   : AVC\nFormat/Info                              : Advanced Video Codec\nFormat profile                           : &lt;a class=&quot;__cf_email__&quot; href=&quot;/cdn-cgi/l/email-protection&quot; data-cfemail=&quot;1c54757b745c5028322c&quot;&gt;[email&amp;#160;protected]&lt;/a&gt;&lt;script cf-hash='f9e31' type=&quot;text/javascript&quot;&gt;\n/* &lt;![CDATA[ */!function(){try{var t=&quot;currentScript&quot;in document?document.currentScript:function(){for(var t=document.getElementsByTagName(&quot;script&quot;),e=t.length;e--;)if(t[e].getAttribute(&quot;cf-hash&quot;))return t[e]}();if(t&amp;&amp;t.previousSibling){var e,r,n,i,c=t.previousSibling,a=c.getAttribute(&quot;data-cfemail&quot;);if(a){for(e=&quot;&quot;,r=parseInt(a.substr(0,2),16),n=2;a.length-n;n+=2)i=parseInt(a.substr(n,2),16)^r,e+=String.fromCharCode(i);e=document.createTextNode(e),c.parentNode.replaceChild(e,c)}}}catch(u){}}();/* ]]&gt; */&lt;/script&gt;\nFormat settings, CABAC                   : Yes\nFormat settings, ReFrames                : 3 frames\nCodec ID                                 : V_MPEG4/ISO/AVC\nDuration                                 : 1h 29mn\nBit rate mode                            : Variable\nBit rate                                 : 5 102 Kbps\nMaximum bit rate                         : 15.0 Mbps\nWidth                                    : 1 280 pixels\nHeight                                   : 720 pixels\nDisplay aspect ratio                     : 16:9\nFrame rate mode                          : Constant\nFrame rate                               : 24.000 fps\nColor space                              : YUV\nChroma subsampling                       : 4:2:0\nBit depth                                : 8 bits\nScan type                                : Progressive\nBits/(Pixel*Frame)                       : 0.231\nStream size                              : 3.18 GiB (83%)\nDefault                                  : Yes\nForced                                   : No\n\nAudio #1\nID                                       : 2\nFormat                                   : AC-3\nFormat/Info                              : Audio Coding 3\nMode extension                           : CM (complete main)\nFormat settings, Endianness              : Big\nCodec ID                                 : A_AC3\nDuration                                 : 1h 29mn\nBit rate mode                            : Constant\nBit rate                                 : 448 Kbps\nChannel(s)                               : 6 channels\nChannel positions                        : Front: L C R, Side: L R, LFE\nSampling rate                            : 48.0 KHz\nBit depth                                : 16 bits\nCompression mode                         : Lossy\nStream size                              : 286 MiB (7%)\nLanguage                                 : English\nDefault                                  : No\nForced                                   : No\n\nAudio #2\nID                                       : 3\nFormat                                   : AC-3\nFormat/Info                              : Audio Coding 3\nMode extension                           : CM (complete main)\nFormat settings, Endianness              : Big\nCodec ID                                 : A_AC3\nDuration                                 : 1h 29mn\nBit rate mode                            : Constant\nBit rate                                 : 448 Kbps\nChannel(s)                               : 6 channels\nChannel positions                        : Front: L C R, Side: L R, LFE\nSampling rate                            : 48.0 KHz\nBit depth                                : 16 bits\nCompression mode                         : Lossy\nStream size                              : 286 MiB (7%)\nLanguage                                 : Spanish\nDefault                                  : Yes\nForced                                   : No\n\nText #1\nID                                       : 4\nFormat                                   : PGS\nMuxing mode                              : zlib\nCodec ID                                 : S_HDMV/PGS\nCodec ID/Info                            : The same subtitle format used on BDs/HD-DVDs\nLanguage                                 : Spanish\nDefault                                  : No\nForced                                   : No\n\nText #2\nID                                       : 5\nFormat                                   : PGS\nMuxing mode                              : zlib\nCodec ID                                 : S_HDMV/PGS\nCodec ID/Info                            : The same subtitle format used on BDs/HD-DVDs\nLanguage                                 : English\nDefault                                  : No\nForced                                   : No","torrent":{"xt":"urn:btih:6a26c481359057f3da4e311bacb5f784b4bb1c3e","amp;dn":"La+Gran+Boda+%28The+Big+Wedding%29%282013%29%28HD%29%28ENG-SPA%29","amp;tr":["udp%3A%2F%2Ftracker.openbittorrent.com%3A80","udp%3A%2F%2Fopen.demonii.com%3A1337","udp%3A%2F%2Ftracker.coppersurfer.tk%3A6969","udp%3A%2F%2Fexodus.desync.com%3A6969"],"infoHash":"6a26c481359057f3da4e311bacb5f784b4bb1c3e","infoHashBuffer":{"type":"Buffer","data":[106,38,196,129,53,144,87,243,218,78,49,27,172,181,247,132,180,187,28,62]},"announce":[],"urlList":[]}}